<svg xmlns="http://www.w3.org/2000/svg" xmlns:xlink="http://www.w3.org/1999/xlink" width="500" zoomAndPan="magnify" viewBox="0 0 375 374.999991" height="500" preserveAspectRatio="xMidYMid meet" version="1.0"><defs><clipPath id="c4d74c36f7"><path d="M 293 133 L 308.433594 133 L 308.433594 183 L 293 183 Z M 293 133 " clip-rule="nonzero"/></clipPath><clipPath id="1fa8334a07"><path d="M 147 254 L 191 254 L 191 296.800781 L 147 296.800781 Z M 147 254 " clip-rule="nonzero"/></clipPath><clipPath id="496c0dfbfd"><path d="M 109 78.550781 L 127 78.550781 L 127 104 L 109 104 Z M 109 78.550781 " clip-rule="nonzero"/></clipPath></defs><path fill="#157a2c" d="M 281.367188 114.246094 C 282.09375 113.847656 282.785156 113.367188 283.375 112.75 C 287.402344 108.582031 286.492188 101.171875 281.335938 96.183594 C 278.972656 93.898438 276.148438 92.539062 273.371094 92.109375 C 273.601562 88.710938 271.285156 84.742188 267.210938 82.226562 C 261.960938 78.984375 255.832031 79.371094 253.53125 83.105469 L 253.441406 83.308594 C 253.179688 83.246094 252.929688 83.167969 252.652344 83.136719 C 247.835938 82.519531 243.53125 85.144531 243.019531 88.988281 C 242.988281 89.296875 243.003906 89.589844 243.019531 89.882812 C 239.871094 89.3125 236.953125 90.703125 236.457031 93.082031 C 235.949219 95.519531 238.15625 98.035156 241.398438 98.730469 C 244.316406 99.347656 247.050781 98.269531 247.960938 96.277344 C 248.855469 96.664062 249.8125 96.957031 250.863281 97.09375 C 251.542969 97.1875 252.191406 97.1875 252.839844 97.15625 C 252.792969 99.070312 254.074219 101.234375 256.28125 102.589844 C 258.378906 103.886719 260.726562 104.105469 262.410156 103.347656 C 262.902344 106.125 264.371094 108.953125 266.746094 111.253906 C 267.347656 111.839844 267.996094 112.363281 268.660156 112.828125 C 268.445312 114.261719 268.601562 115.839844 269.171875 117.398438 C 270.683594 121.488281 274.558594 123.804688 277.832031 122.601562 C 280.78125 121.503906 282.214844 117.921875 281.367188 114.246094 Z M 245.121094 90.59375 L 244.964844 90.101562 C 244.578125 88 246.417969 85.886719 249.070312 85.375 C 249.394531 85.316406 249.703125 85.285156 250.027344 85.269531 C 247.390625 85.886719 245.613281 88.277344 246.0625 90.71875 L 246.246094 91.273438 C 246.402344 91.722656 246.601562 92.140625 246.894531 92.507812 C 246.03125 92.0625 245.429688 91.398438 245.121094 90.59375 Z M 253.703125 89.25 C 253.347656 87.351562 254.210938 85.46875 255.769531 84.046875 C 256.882812 83.046875 258.347656 82.273438 260.046875 81.949219 C 260.542969 81.839844 261.035156 81.792969 261.515625 81.777344 C 259.585938 82.226562 257.996094 83.292969 256.882812 84.667969 C 255.632812 86.226562 255 88.1875 255.371094 90.191406 C 255.570312 91.242188 256.019531 92.183594 256.636719 92.988281 C 255.109375 92.183594 254.011719 90.871094 253.703125 89.25 Z M 254.535156 98.46875 C 254.429688 97.929688 254.472656 97.402344 254.628906 96.894531 C 254.984375 95.796875 255.925781 94.886719 257.207031 94.515625 L 257.730469 94.378906 C 257.996094 94.332031 258.257812 94.316406 258.519531 94.316406 C 258.132812 94.394531 257.792969 94.53125 257.46875 94.703125 C 256.683594 95.117188 256.050781 95.78125 255.695312 96.585938 C 255.371094 97.328125 255.261719 98.175781 255.445312 99.039062 C 255.570312 99.65625 255.832031 100.214844 256.1875 100.691406 C 255.355469 100.199219 254.738281 99.425781 254.535156 98.46875 Z M 267.148438 99.734375 C 266.191406 100.722656 265.542969 101.894531 265.140625 103.164062 C 264.910156 101.234375 265.359375 99.363281 266.46875 97.914062 C 266.625 97.710938 266.746094 97.496094 266.933594 97.3125 C 268.292969 95.90625 270.175781 95.289062 272.179688 95.335938 C 274.558594 95.394531 277.089844 96.414062 279.144531 98.40625 C 279.605469 98.855469 280.007812 99.316406 280.378906 99.8125 C 276.441406 96.246094 270.589844 96.167969 267.148438 99.734375 Z M 273.230469 110.464844 C 272.660156 110.742188 272.179688 111.128906 271.8125 111.578125 C 272.089844 110.652344 272.722656 109.863281 273.585938 109.429688 C 275.332031 108.597656 277.445312 109.554688 278.308594 111.578125 C 278.417969 111.824219 278.496094 112.070312 278.558594 112.316406 C 277.617188 110.339844 275.269531 109.492188 273.230469 110.464844 Z M 267.613281 112.671875 L 267.628906 112.582031 C 261.945312 112.164062 255.433594 115.175781 251.882812 118.878906 C 254.644531 114.925781 256.992188 109.523438 257.332031 104.289062 C 256.789062 104.074219 256.234375 103.839844 255.726562 103.515625 C 255.03125 103.085938 254.429688 102.574219 253.902344 102.035156 C 252.589844 105.292969 251.15625 108.457031 249.597656 111.761719 C 250.445312 107.730469 249.179688 102.898438 247.3125 98.683594 C 246.601562 99.195312 245.78125 99.597656 244.839844 99.796875 C 249.566406 109.199219 245.105469 120.703125 240.828125 124.082031 L 252.839844 131.507812 C 255.816406 125.070312 261.375 119.328125 267.953125 116.996094 C 267.519531 115.558594 267.394531 114.09375 267.613281 112.671875 Z M 267.613281 112.671875 " fill-opacity="1" fill-rule="nonzero"/><path fill="#ba9874" d="M 189.4375 155.222656 C 181.054688 161.617188 178.351562 173.007812 181.808594 177.535156 C 185.269531 182.058594 191.984375 177.609375 200.367188 171.21875 C 208.75 164.828125 215.617188 158.914062 212.160156 154.390625 C 208.703125 149.851562 197.820312 148.832031 189.4375 155.222656 Z M 185.871094 165.566406 C 184.835938 169.179688 185.066406 172.609375 186.582031 174.601562 C 187.011719 175.15625 187.492188 175.558594 188.015625 175.835938 C 188.957031 176.3125 188.523438 177.023438 186.765625 176.929688 C 185.683594 176.886719 184.773438 176.4375 184.046875 175.480469 C 181.300781 171.882812 183.445312 162.835938 190.117188 157.753906 C 190.175781 157.710938 190.222656 157.679688 190.285156 157.632812 C 190.378906 157.554688 187.273438 160.597656 185.871094 165.566406 Z M 185.871094 165.566406 " fill-opacity="1" fill-rule="nonzero"/><path fill="#ba9874" d="M 198.574219 174.214844 C 200.011719 180.542969 197.679688 188.710938 203.792969 189.4375 C 216.265625 190.886719 213.242188 177.84375 208.425781 172.191406 C 207.421875 171.019531 206.371094 169.953125 205.289062 169.027344 C 204.007812 170.0625 202.667969 171.140625 201.167969 172.285156 C 200.273438 172.949219 199.425781 173.597656 198.574219 174.214844 Z M 198.574219 174.214844 " fill-opacity="1" fill-rule="nonzero"/><path fill="#f64b31" d="M 129.292969 192.832031 C 128.179688 193.144531 126.773438 193.496094 125.371094 193.792969 C 126.589844 195.597656 127.578125 197.574219 127.625 197.683594 L 128.734375 199.9375 L 126.390625 199.054688 C 126.25 198.992188 123.347656 197.898438 120.984375 196.679688 C 120.136719 199.039062 118.886719 201.402344 118.808594 201.527344 L 117.929688 203.164062 L 117.050781 201.511719 C 116.972656 201.371094 115.550781 198.640625 114.71875 196.121094 C 112.355469 197.34375 109.46875 198.4375 109.332031 198.484375 L 106.984375 199.363281 L 108.078125 197.125 C 108.125 197.019531 109.113281 195.042969 110.332031 193.234375 C 107.695312 192.695312 104.992188 191.875 104.484375 191.722656 C 98.460938 194.996094 94.449219 200.769531 94.449219 207.363281 C 94.449219 217.582031 104.066406 225.890625 115.9375 225.890625 C 127.808594 225.890625 137.441406 217.613281 137.457031 207.394531 C 137.488281 201.480469 134.292969 196.230469 129.292969 192.832031 Z M 100.46875 197.835938 C 101.90625 195.644531 104.25 194.269531 105.101562 194.316406 C 105.964844 194.378906 105.253906 195.722656 104.019531 197.636719 C 102.769531 199.566406 101.320312 201.371094 100.269531 201.558594 C 99.234375 201.773438 99.050781 200.011719 100.46875 197.835938 Z M 101.597656 218.125 C 98.800781 215.28125 97.121094 211.625 97.121094 207.609375 C 97.121094 206.804688 97.195312 206.019531 97.335938 205.246094 C 97.566406 203.949219 98.832031 202.992188 99.929688 203.101562 C 101.023438 203.210938 101.410156 204.492188 101.101562 205.972656 C 100.933594 206.851562 100.824219 207.761719 100.824219 208.707031 C 100.824219 212.054688 101.996094 215.175781 104.019531 217.753906 C 107.371094 222 106.148438 222.722656 101.597656 218.125 Z M 101.597656 218.125 " fill-opacity="1" fill-rule="nonzero"/><path fill="#157a2c" d="M 123.640625 193.097656 C 126.820312 192.601562 131.035156 191.304688 131.035156 191.304688 C 131.035156 191.304688 126.511719 190.210938 123.285156 189.914062 C 124.890625 188.015625 126.40625 185.160156 126.40625 185.160156 C 126.40625 185.160156 122.683594 186.472656 120.230469 187.769531 C 119.90625 185.855469 118.746094 183.308594 118.746094 183.308594 C 118.746094 183.308594 116.941406 185.746094 116.199219 187.601562 C 113.839844 186.179688 109.332031 184.605469 109.332031 184.605469 C 109.332031 184.605469 110.84375 187.460938 112.449219 189.359375 C 109.222656 189.652344 104.699219 190.75 104.699219 190.75 C 104.699219 190.75 108.914062 192.046875 112.09375 192.539062 C 110.503906 194.46875 108.992188 197.558594 108.992188 197.558594 C 108.992188 197.558594 112.957031 196.0625 115.335938 194.65625 C 115.96875 197.34375 117.929688 201.046875 117.929688 201.046875 C 117.929688 201.046875 119.660156 197.835938 120.398438 195.226562 C 122.777344 196.632812 126.714844 198.113281 126.714844 198.113281 C 126.714844 198.113281 125.230469 195.042969 123.640625 193.097656 Z M 123.640625 193.097656 " fill-opacity="1" fill-rule="nonzero"/><path fill="#57a52c" d="M 292.3125 130.414062 C 294.953125 132.28125 294.226562 135.445312 293.640625 136.742188 C 292.976562 138.242188 292.21875 138.828125 292.421875 139.089844 C 292.40625 139.199219 293.761719 138.796875 294.75 136.929688 C 295.722656 135.308594 296.308594 131.386719 293.144531 129.253906 C 290.289062 127.433594 285.472656 127.726562 284.023438 131.679688 C 284.070312 133.808594 286.894531 135.121094 288.238281 133.609375 C 289.488281 132.480469 290.105469 130.875 289.71875 129.378906 C 286.816406 123.742188 281.460938 126.183594 281.984375 126.058594 C 281.492188 126.042969 286.925781 124.453125 289.023438 129.578125 C 289.796875 131.988281 285.703125 134.984375 285.210938 131.710938 C 285.90625 129.71875 290.367188 128.730469 292.3125 130.414062 Z M 292.3125 130.414062 " fill-opacity="1" fill-rule="nonzero"/><path fill="#57a52c" d="M 283.390625 156.058594 C 288.265625 147.054688 292.914062 137.269531 294.367188 134.101562 C 294.734375 134.828125 295.074219 135.585938 295.074219 136.402344 C 295.074219 136.789062 295.183594 137.160156 295.335938 137.484375 C 295.308594 137.578125 295.261719 137.652344 295.230469 137.761719 C 294.273438 141.375 294.457031 145.1875 294.101562 148.894531 C 293.71875 153.046875 293.347656 157.199219 293.039062 161.351562 C 292.976562 162.140625 293.332031 162.726562 293.824219 163.082031 C 289.503906 170.03125 282.570312 174.183594 277.320312 175.25 C 271.765625 176.46875 268.398438 175.324219 268.445312 175.433594 C 268.953125 175.292969 277.617188 166.710938 283.390625 156.058594 Z M 283.390625 156.058594 " fill-opacity="1" fill-rule="nonzero"/><path fill="#57a52c" d="M 295.292969 134.195312 C 295.445312 133.625 295.523438 133.253906 295.507812 133.175781 C 295.492188 133.128906 295.570312 133.160156 295.691406 133.222656 L 295.476562 134.242188 C 295.414062 134.242188 295.367188 134.210938 295.292969 134.195312 Z M 295.292969 134.195312 " fill-opacity="1" fill-rule="nonzero"/><path fill="#57a52c" d="M 294.953125 142.054688 C 295.230469 143.597656 296.851562 144.632812 298.578125 144.371094 C 298.765625 144.339844 298.949219 144.292969 299.121094 144.230469 C 299.257812 144.695312 299.398438 145.15625 299.535156 145.636719 C 299.289062 145.621094 299.042969 145.636719 298.796875 145.667969 C 296.574219 146.007812 294.96875 147.875 295.167969 149.867188 C 295.261719 151.859375 297.160156 153.480469 299.382812 153.464844 C 299.984375 153.464844 300.523438 153.324219 301.035156 153.078125 C 301.097656 153.601562 301.140625 154.128906 301.171875 154.652344 C 300.632812 154.375 300.015625 154.21875 299.367188 154.21875 C 297.113281 154.25 295.335938 155.902344 295.230469 157.925781 C 295.121094 159.949219 296.773438 161.785156 298.980469 162.03125 C 299.675781 162.109375 300.324219 162 300.910156 161.753906 C 300.832031 162.308594 300.742188 162.867188 300.632812 163.4375 C 300.125 163.097656 299.535156 162.867188 298.886719 162.789062 C 296.664062 162.558594 294.703125 164.007812 294.351562 166 C 294.042969 167.992188 295.398438 170 297.605469 170.507812 C 297.929688 170.585938 298.253906 170.601562 298.5625 170.601562 C 298.425781 170.988281 298.269531 171.375 298.132812 171.742188 C 297.902344 171.621094 297.652344 171.511719 297.390625 171.449219 C 295.675781 171.0625 294.027344 172.007812 293.59375 173.519531 C 293.160156 175.015625 294.054688 176.636719 295.632812 177.253906 C 294.796875 178.875 294.042969 180.144531 293.484375 180.882812 C 293.421875 180.976562 293.363281 181.054688 293.300781 181.128906 L 293.222656 181.054688 C 292.699219 177.425781 290.273438 167.359375 290.582031 157.632812 C 291.386719 148.089844 294.257812 138.101562 295.199219 134.535156 C 295.617188 135.277344 296.296875 136.679688 297.050781 138.535156 C 295.523438 139.105469 294.597656 140.601562 294.953125 142.054688 Z M 294.953125 142.054688 " fill-opacity="1" fill-rule="nonzero"/><g clip-path="url(#c4d74c36f7)"><path fill="#57a52c" d="M 295.507812 133.175781 C 295.199219 132.527344 308.90625 141.808594 307.980469 158.496094 C 307.238281 174.753906 293.363281 183.429688 293.238281 182.441406 L 293.238281 182.320312 C 294.085938 183.089844 302.363281 168.285156 302.070312 158.390625 C 303.101562 147.78125 295.800781 132.898438 295.460938 133.285156 Z M 295.507812 133.175781 " fill-opacity="1" fill-rule="nonzero"/></g><path fill="#57a52c" d="M 225.46875 112.582031 C 225.484375 112.582031 225.515625 112.566406 225.515625 112.535156 C 225.515625 112.519531 225.5 112.503906 225.484375 112.488281 C 219.554688 111.683594 215.109375 112.300781 210.015625 113.382812 C 206.851562 114.0625 203.730469 114.894531 200.628906 115.792969 C 205.863281 110.511719 212.128906 106.851562 219.570312 106.804688 C 224.617188 106.773438 230.714844 109.460938 235.085938 111.992188 C 231.566406 115.203125 227.351562 117.644531 222.78125 119.003906 C 215.820312 121.070312 208.144531 120.578125 201.460938 117.738281 C 204.347656 116.75 207.265625 115.808594 210.214844 115.003906 C 215.171875 113.675781 220.28125 112.6875 225.46875 112.582031 Z M 225.46875 112.582031 " fill-opacity="1" fill-rule="nonzero"/><path fill="#a4c52c" d="M 270.882812 148.847656 C 270.898438 148.832031 270.914062 148.832031 270.945312 148.847656 C 270.960938 148.863281 270.976562 148.894531 270.960938 148.910156 C 268.523438 153 265.21875 156.429688 261.605469 159.484375 C 259.367188 161.382812 257.007812 163.128906 254.582031 164.828125 C 262.253906 164.828125 268.953125 161.601562 272.738281 155.949219 C 275.300781 152.121094 276.488281 147.210938 276.273438 141.960938 C 271.441406 142.207031 266.980469 143.582031 263.382812 146.039062 C 257.902344 149.789062 254.503906 156.011719 253.855469 163.265625 C 256.265625 161.816406 258.628906 160.304688 260.867188 158.667969 C 264.664062 155.871094 268.183594 152.722656 270.882812 148.847656 Z M 270.882812 148.847656 " fill-opacity="1" fill-rule="nonzero"/><path fill="#a4c52c" d="M 210.308594 210.046875 C 210.292969 210.03125 210.308594 210.003906 210.324219 209.988281 C 210.339844 209.972656 210.371094 209.972656 210.386719 209.988281 C 213.535156 213.585938 215.757812 217.785156 217.5625 222.152344 C 218.675781 224.871094 219.601562 227.664062 220.464844 230.476562 C 222.84375 223.171875 221.824219 215.808594 217.625 210.464844 C 214.769531 206.835938 210.476562 204.195312 205.414062 202.792969 C 204.148438 207.46875 204.085938 212.132812 205.304688 216.300781 C 207.175781 222.679688 212.050781 227.835938 218.753906 230.691406 C 218.105469 227.957031 217.410156 225.242188 216.542969 222.601562 C 215.0625 218.140625 213.164062 213.816406 210.308594 210.046875 Z M 210.308594 210.046875 " fill-opacity="1" fill-rule="nonzero"/><path fill="#57a52c" d="M 105.839844 146.703125 C 105.824219 146.6875 105.839844 146.65625 105.855469 146.640625 C 105.871094 146.625 105.902344 146.625 105.917969 146.640625 C 109.066406 150.238281 111.292969 154.4375 113.097656 158.804688 C 114.207031 161.523438 115.136719 164.316406 116 167.128906 C 118.375 159.824219 117.359375 152.460938 113.160156 147.117188 C 110.304688 143.488281 106.011719 140.851562 100.949219 139.445312 C 99.683594 144.121094 99.621094 148.785156 100.839844 152.953125 C 102.707031 159.332031 107.585938 164.488281 114.285156 167.34375 C 113.636719 164.609375 112.941406 161.894531 112.078125 159.253906 C 110.613281 154.777344 108.699219 150.46875 105.839844 146.703125 Z M 105.839844 146.703125 " fill-opacity="1" fill-rule="nonzero"/><path fill="#157a2c" d="M 210 97.0625 C 210.015625 97.046875 210.03125 97.046875 210.046875 97.0625 C 210.0625 97.078125 210.0625 97.09375 210.0625 97.109375 C 207.914062 101.078125 206.078125 103.363281 203.128906 105.878906 C 201.292969 107.4375 198.636719 108.828125 196.660156 110.234375 C 202.960938 110.21875 208.457031 107.546875 211.558594 102.898438 C 213.65625 99.75 214.613281 95.71875 214.429688 91.398438 C 210.460938 91.613281 206.804688 92.742188 203.855469 94.777344 C 199.363281 97.867188 196.582031 102.992188 196.058594 108.953125 C 198.035156 107.746094 199.964844 106.511719 201.816406 105.152344 C 204.921875 102.855469 207.792969 100.261719 210 97.0625 Z M 210 97.0625 " fill-opacity="1" fill-rule="nonzero"/><path fill="#157a2c" d="M 288.898438 190.640625 C 288.898438 190.625 288.898438 190.609375 288.886719 190.609375 C 288.871094 190.609375 288.855469 190.609375 288.855469 190.625 C 287.21875 193.574219 286.523438 195.644531 286.121094 198.515625 C 285.875 200.292969 286.074219 202.53125 285.984375 204.335938 C 283.464844 200.367188 282.941406 195.828125 284.625 192.03125 C 285.765625 189.4375 287.914062 187.214844 290.707031 185.609375 C 292.171875 188.1875 292.914062 190.949219 292.835938 193.621094 C 292.699219 197.695312 290.582031 201.496094 287.046875 204.210938 C 287.015625 202.484375 287.015625 200.769531 287.125 199.070312 C 287.308594 196.167969 287.773438 193.328125 288.898438 190.640625 Z M 288.898438 190.640625 " fill-opacity="1" fill-rule="nonzero"/><path fill="#157a2c" d="M 145.53125 84.464844 C 145.546875 84.464844 145.5625 84.464844 145.5625 84.433594 C 145.5625 84.417969 145.5625 84.402344 145.546875 84.402344 C 142.382812 83.261719 140.222656 82.890625 137.335938 82.953125 C 135.542969 82.984375 133.367188 83.523438 131.574219 83.722656 C 135.097656 80.605469 139.496094 79.386719 143.523438 80.449219 C 146.257812 81.175781 148.789062 82.953125 150.828125 85.453125 C 148.511719 87.304688 145.902344 88.480469 143.246094 88.804688 C 139.203125 89.296875 135.109375 87.816406 131.871094 84.742188 C 133.566406 84.433594 135.265625 84.171875 136.964844 84.019531 C 139.835938 83.753906 142.722656 83.785156 145.53125 84.464844 Z M 145.53125 84.464844 " fill-opacity="1" fill-rule="nonzero"/><path fill="#a4c52c" d="M 147.539062 215.359375 C 147.539062 215.34375 147.539062 215.328125 147.523438 215.328125 C 147.507812 215.328125 147.492188 215.328125 147.492188 215.328125 C 145.347656 217.921875 144.28125 219.820312 143.355469 222.570312 C 142.785156 224.269531 142.566406 226.507812 142.152344 228.25 C 140.40625 223.882812 140.730469 219.328125 143.09375 215.898438 C 144.699219 213.570312 147.214844 211.777344 150.253906 210.710938 C 151.210938 213.523438 151.445312 216.378906 150.859375 218.972656 C 149.960938 222.941406 147.199219 226.289062 143.199219 228.3125 C 143.476562 226.613281 143.800781 224.933594 144.234375 223.28125 C 144.945312 220.5 145.949219 217.785156 147.539062 215.359375 Z M 147.539062 215.359375 " fill-opacity="1" fill-rule="nonzero"/><path fill="#a4c52c" d="M 84.105469 182.257812 C 84.105469 182.242188 84.089844 182.226562 84.058594 182.226562 C 84.042969 182.226562 84.027344 182.242188 84.027344 182.257812 C 83.8125 186.8125 84.214844 189.730469 85.449219 193.453125 C 86.21875 195.765625 87.796875 198.34375 88.769531 200.585938 C 83.332031 197.28125 79.984375 192.109375 79.738281 186.472656 C 79.566406 182.644531 80.847656 178.660156 83.257812 175.03125 C 86.574219 177.285156 89.136719 180.1875 90.636719 183.476562 C 92.90625 188.496094 92.628906 194.378906 89.972656 199.796875 C 88.890625 197.726562 87.871094 195.644531 86.992188 193.511719 C 85.480469 189.914062 84.351562 186.164062 84.105469 182.257812 Z M 84.105469 182.257812 " fill-opacity="1" fill-rule="nonzero"/><path fill="#f64b31" d="M 249.953125 145.433594 C 249.597656 142.269531 247.605469 139.953125 244.53125 139.351562 C 241.832031 138.828125 239.082031 140.417969 238.0625 142.902344 C 237.183594 145.035156 237.277344 147.410156 237.402344 149.695312 C 234.960938 147.597656 232.398438 145.417969 229.25 144.769531 C 226.316406 144.167969 223.523438 145.496094 222.347656 148.277344 C 220.851562 151.8125 222.503906 154.203125 225.035156 156.628906 C 230.375 161.738281 237 165.445312 244.117188 167.484375 C 247.464844 161.074219 250.753906 152.628906 249.953125 145.433594 Z M 249.953125 145.433594 " fill-opacity="1" fill-rule="nonzero"/><path fill="#f68820" d="M 89.894531 163.328125 C 92.023438 161.292969 92.597656 158.496094 91.316406 155.902344 C 90.171875 153.617188 87.457031 152.507812 85.046875 153.15625 C 82.992188 153.710938 81.296875 155.132812 79.675781 156.503906 C 79.84375 153.523438 79.984375 150.40625 78.6875 147.71875 C 77.484375 145.21875 74.921875 143.921875 72.203125 144.632812 C 68.746094 145.527344 67.925781 148.089844 67.585938 151.332031 C 66.863281 158.15625 67.878906 165.121094 70.398438 171.496094 C 76.988281 170.355469 85.0625 167.992188 89.894531 163.328125 Z M 89.894531 163.328125 " fill-opacity="1" fill-rule="nonzero"/><path fill="#f6c02b" d="M 168.765625 163.605469 C 167.761719 170.402344 161.464844 175.09375 154.671875 174.089844 C 147.894531 173.085938 143.199219 166.789062 144.1875 159.996094 C 144.511719 157.769531 145.421875 155.78125 146.703125 154.144531 L 146.6875 154.144531 C 152.402344 146.855469 152.230469 146.054688 152.417969 140.773438 C 152.433594 140.511719 152.449219 140.261719 152.476562 140 C 153.050781 136.125 156.648438 133.4375 160.523438 134.011719 C 164.394531 134.582031 167.082031 138.179688 166.511719 142.054688 C 166.464844 142.316406 166.417969 142.5625 166.355469 142.808594 C 165.015625 147.9375 164.628906 148.648438 168.007812 157.261719 L 167.992188 157.261719 C 168.796875 159.222656 169.089844 161.382812 168.765625 163.605469 Z M 168.765625 163.605469 " fill-opacity="1" fill-rule="nonzero"/><path fill="#157a2c" d="M 145.6875 132.992188 L 145.578125 132.449219 C 145.5 132.125 145.421875 131.800781 145.316406 131.476562 C 143.757812 126.644531 138.554688 123.972656 133.722656 125.550781 C 128.890625 127.109375 126.21875 132.3125 127.777344 137.144531 C 127.886719 137.46875 128.011719 137.777344 128.132812 138.085938 L 128.363281 138.59375 C 130.234375 142.734375 130.464844 143.257812 128.78125 151.316406 C 128.257812 153.789062 128.394531 156.367188 129.167969 158.773438 C 130.925781 164.226562 135.605469 167.898438 140.929688 168.671875 C 139.972656 166.910156 139.386719 164.996094 139.339844 163.019531 C 139.234375 157.617188 142.210938 153.894531 145.082031 150.28125 C 145.746094 149.449219 146.410156 148.632812 147.027344 147.78125 C 148.125 146.285156 148.355469 144.710938 148.632812 142.871094 C 148.773438 141.992188 148.914062 141.066406 149.160156 140.109375 C 146.613281 137.4375 146.367188 136.28125 145.6875 132.992188 Z M 133.445312 160.410156 C 133.644531 161.027344 133.875 161.601562 134.152344 162.171875 C 134.601562 163.113281 133.816406 162.835938 132.734375 161.230469 C 132.101562 160.289062 131.574219 159.238281 131.207031 158.09375 C 130.511719 155.964844 130.449219 153.773438 130.867188 151.734375 C 132.765625 142.671875 132.253906 142.039062 130.09375 137.207031 C 129.984375 136.972656 129.894531 136.742188 129.816406 136.480469 C 129.292969 134.875 129.382812 133.222656 129.941406 131.757812 C 130.898438 129.269531 131.886719 129.578125 131.546875 131.679688 C 131.34375 132.914062 131.4375 134.210938 131.839844 135.476562 C 131.929688 135.769531 132.039062 136.03125 132.164062 136.308594 C 134.664062 141.867188 135.25 142.609375 133.074219 153.0625 C 132.5625 155.425781 132.640625 157.941406 133.445312 160.410156 Z M 133.445312 160.410156 " fill-opacity="1" fill-rule="nonzero"/><path fill="#157a2c" d="M 170.015625 156.488281 C 167.003906 148.832031 167.160156 148.261719 168.300781 143.890625 L 168.441406 143.351562 C 168.535156 143.027344 168.59375 142.703125 168.640625 142.363281 C 169.382812 137.34375 165.894531 132.652344 160.859375 131.910156 C 155.84375 131.167969 151.152344 134.660156 150.410156 139.691406 C 150.363281 140.03125 150.332031 140.355469 150.316406 140.695312 L 150.300781 141.25 C 150.148438 145.773438 150.132812 146.363281 145.054688 152.847656 C 143.492188 154.835938 142.476562 157.199219 142.105469 159.699219 C 140.945312 167.621094 146.441406 175.03125 154.378906 176.191406 C 162.3125 177.347656 169.707031 171.851562 170.863281 163.914062 C 171.21875 161.414062 170.925781 158.851562 170.015625 156.488281 Z M 168.765625 163.605469 C 167.761719 170.402344 161.464844 175.09375 154.671875 174.089844 C 147.894531 173.085938 143.199219 166.789062 144.1875 159.996094 C 144.511719 157.769531 145.421875 155.78125 146.703125 154.144531 L 146.6875 154.144531 C 152.402344 146.855469 152.230469 146.054688 152.417969 140.773438 C 152.433594 140.511719 152.449219 140.261719 152.476562 140 C 153.050781 136.125 156.648438 133.4375 160.523438 134.011719 C 164.394531 134.582031 167.082031 138.179688 166.511719 142.054688 C 166.464844 142.316406 166.417969 142.5625 166.355469 142.808594 C 165.015625 147.9375 164.628906 148.648438 168.007812 157.261719 L 167.992188 157.261719 C 168.796875 159.222656 169.089844 161.382812 168.765625 163.605469 Z M 168.765625 163.605469 " fill-opacity="1" fill-rule="nonzero"/><path fill="#f68820" d="M 158.515625 151.085938 C 154.023438 150.421875 149.746094 154.25 148.957031 159.625 C 148.171875 164.996094 151.183594 169.890625 155.660156 170.539062 C 160.152344 171.203125 164.425781 167.375 165.214844 162 C 166.015625 156.628906 163.007812 151.734375 158.515625 151.085938 Z M 152.710938 157.847656 C 152.199219 158.804688 151.84375 159.902344 151.675781 161.074219 C 151.519531 162.078125 151.519531 163.066406 151.660156 163.992188 C 151.890625 165.597656 151.226562 165.507812 150.671875 163.484375 C 150.347656 162.308594 150.269531 161.027344 150.457031 159.699219 C 150.59375 158.714844 150.886719 157.800781 151.289062 156.96875 C 151.96875 155.546875 153.40625 154.542969 153.976562 154.605469 C 154.5625 154.667969 153.589844 156.195312 152.710938 157.847656 Z M 160.226562 153.449219 C 159.519531 153.339844 158.824219 153.371094 158.144531 153.496094 C 157 153.710938 155.765625 154.035156 155.257812 153.863281 C 154.746094 153.695312 155.101562 153.0625 156.230469 152.800781 C 156.894531 152.660156 157.589844 152.613281 158.296875 152.722656 C 158.667969 152.785156 159.039062 152.875 159.378906 153 C 159.949219 153.214844 160.351562 153.480469 160.304688 153.464844 C 160.273438 153.449219 160.242188 153.449219 160.226562 153.449219 Z M 160.226562 153.449219 " fill-opacity="1" fill-rule="nonzero"/><path fill="#157a2c" d="M 250.769531 206.746094 C 246.894531 203.195312 244.703125 195.210938 244.980469 190.132812 C 246.523438 189.808594 248.207031 189.589844 249.75 189.589844 C 247.25 194.902344 248.035156 202.128906 252.574219 206.15625 Z M 250.769531 206.746094 " fill-opacity="1" fill-rule="nonzero"/><path fill="#157a2c" d="M 239.609375 197.605469 C 243.976562 198.097656 247.066406 202.652344 247.066406 202.652344 C 247.066406 202.652344 243.050781 206.4375 238.683594 205.941406 C 234.3125 205.449219 231.226562 200.878906 231.226562 200.878906 C 231.226562 200.878906 235.222656 197.109375 239.609375 197.605469 Z M 239.609375 197.605469 " fill-opacity="1" fill-rule="nonzero"/><path fill="#f64b31" d="M 258.378906 192.742188 C 254.027344 194.269531 250.289062 199.164062 249.75 203.980469 C 244.902344 204.382812 239.917969 207.980469 238.265625 212.289062 C 236.132812 217.828125 240.65625 223.726562 244.578125 227.308594 C 250.414062 232.636719 259.367188 233.792969 265.789062 228.542969 C 267.226562 227.371094 268.476562 225.65625 269.015625 223.804688 C 270.871094 223.328125 272.628906 222.121094 273.832031 220.71875 C 279.265625 214.449219 278.371094 205.464844 273.199219 199.472656 C 269.757812 195.457031 264 190.765625 258.378906 192.742188 Z M 269.140625 203.8125 C 267.84375 201.773438 266.714844 199.734375 264.476562 198.53125 C 262.625 197.527344 258.597656 196.324219 256.050781 197.140625 C 261.234375 194.484375 273.214844 197.003906 269.140625 203.8125 Z M 269.140625 203.8125 " fill-opacity="1" fill-rule="nonzero"/><path fill="#7f3068" d="M 153.140625 118.460938 C 157.851562 119.328125 162.28125 120.113281 166.558594 121.691406 C 168.765625 122.492188 170.925781 123.496094 173.070312 124.824219 C 174.507812 125.71875 176.082031 126.722656 177.71875 127.617188 C 178.242188 127.171875 178.890625 126.722656 179.601562 126.320312 C 178.042969 125.550781 176.484375 124.59375 175.046875 123.695312 L 174.121094 123.125 C 171.992188 121.796875 169.738281 120.71875 167.238281 119.804688 C 162.929688 118.230469 158.5625 117.429688 153.929688 116.578125 L 153.496094 116.5 C 143.433594 114.648438 142.84375 109.863281 143.277344 106.433594 C 143.664062 103.332031 144.527344 100.785156 145.855469 98.777344 C 145.40625 99.964844 145.023438 101.261719 144.746094 102.699219 C 144.066406 106.296875 144.375 111.375 154.855469 114.015625 L 155.304688 114.125 C 160.136719 115.328125 164.707031 116.472656 169.136719 118.433594 C 171.714844 119.558594 174.015625 120.855469 176.175781 122.398438 L 177.101562 123.0625 C 178.304688 123.929688 179.617188 124.871094 180.945312 125.703125 C 181.175781 125.609375 181.394531 125.503906 181.625 125.425781 C 180.835938 124.296875 180.296875 122.894531 180.019531 121.210938 L 179.804688 119.898438 L 181.144531 119.914062 C 181.207031 119.914062 185.46875 120.039062 188.324219 120.980469 C 188.261719 118.847656 188.820312 116.394531 190.269531 115.097656 C 187.414062 107.933594 180.542969 100.539062 175.542969 97.25 C 165.292969 90.515625 143.863281 85.5625 141.269531 106.203125 C 140.296875 114.171875 146.425781 117.210938 153.140625 118.460938 Z M 153.140625 118.460938 " fill-opacity="1" fill-rule="nonzero"/><path fill="#157a2c" d="M 177.734375 129.164062 C 181.085938 130.828125 184.28125 132.171875 188.0625 131.785156 C 190.300781 131.570312 192.199219 131.539062 193.339844 133.269531 L 195.394531 131.417969 C 193.078125 128.898438 193.757812 127.046875 193.820312 125.84375 C 193.898438 124.390625 194.019531 122.398438 193.558594 121.011719 C 192.988281 119.25 192.015625 117.414062 191.117188 115.808594 C 189.359375 117.257812 189.171875 121.070312 189.777344 123.0625 C 189.34375 121.660156 182.472656 121.027344 181.144531 121.011719 C 181.515625 123.25 182.457031 125.410156 184.574219 126.554688 C 182.566406 125.457031 179.015625 127.664062 177.734375 129.164062 Z M 177.734375 129.164062 " fill-opacity="1" fill-rule="nonzero"/><path fill="#157a2c" d="M 153.265625 264.566406 C 153.097656 264.347656 152.894531 264.132812 152.710938 263.933594 C 148.542969 259.546875 137.675781 259.421875 132.085938 261.675781 L 131.050781 259.007812 C 137.613281 256.566406 148.867188 256.273438 154.730469 261.894531 C 155.011719 262.15625 155.257812 262.449219 155.503906 262.742188 Z M 153.265625 264.566406 " fill-opacity="1" fill-rule="nonzero"/><path fill="#157a2c" d="M 155.472656 260.582031 C 152.972656 258.066406 151.429688 253.972656 150.78125 249.757812 C 150.164062 245.527344 150.441406 241.175781 152.277344 238.039062 L 154.730469 239.507812 C 153.421875 241.652344 153.019531 245.558594 153.605469 249.339844 C 154.144531 253.125 155.675781 256.800781 157.480469 258.574219 C 157.496094 258.589844 157.511719 258.605469 157.542969 258.636719 L 155.582031 260.71875 C 155.582031 260.675781 155.535156 260.628906 155.472656 260.582031 Z M 155.472656 260.582031 " fill-opacity="1" fill-rule="nonzero"/><path fill="#157a2c" d="M 153.125 259.777344 C 148.265625 254.839844 145.039062 246.300781 144.820312 240.972656 L 147.675781 240.882812 C 147.753906 245.1875 150.964844 253.664062 155.148438 257.742188 C 156.167969 258.757812 157.21875 259.5 158.238281 259.917969 L 157.15625 262.574219 C 155.691406 261.972656 154.347656 260.984375 153.125 259.777344 Z M 153.125 259.777344 " fill-opacity="1" fill-rule="nonzero"/><path fill="#157a2c" d="M 154.46875 259.703125 C 152.988281 258.789062 151.507812 257.585938 150.085938 256.164062 C 145.917969 252.011719 142.304688 246.269531 140.265625 242.425781 L 137.734375 243.769531 C 139.882812 247.78125 143.554688 253.695312 148.0625 258.1875 C 149.4375 259.546875 150.886719 260.78125 152.417969 261.785156 C 153.035156 261.042969 153.730469 260.351562 154.46875 259.703125 Z M 154.46875 259.703125 " fill-opacity="1" fill-rule="nonzero"/><path fill="#157a2c" d="M 133.503906 252.9375 L 133.738281 250.082031 C 141.007812 250.761719 147.460938 257.015625 152.632812 260.503906 L 151.011719 262.867188 C 145.640625 259.097656 139.21875 253.339844 133.503906 252.9375 Z M 133.503906 252.9375 " fill-opacity="1" fill-rule="nonzero"/><g clip-path="url(#1fa8334a07)"><path fill="#f68820" d="M 150.148438 256.488281 C 146.84375 259.808594 146.519531 264.964844 151.660156 271.28125 C 151.242188 270.769531 150.859375 270.261719 150.503906 269.753906 C 153.140625 267.160156 155.96875 264.875 159.472656 263.285156 C 157.496094 265.320312 153.789062 268.316406 151.660156 271.28125 C 152.339844 272.113281 153.113281 272.964844 153.976562 273.84375 C 153.636719 273.503906 153.34375 273.179688 153.035156 272.839844 C 155.703125 270.199219 158.578125 267.867188 162.128906 266.230469 C 160.167969 268.253906 156.492188 271.25 154.347656 274.183594 C 154.808594 274.632812 155.304688 275.109375 155.875 275.621094 C 158.5 273.039062 161.308594 270.785156 164.78125 269.195312 C 162.898438 271.140625 159.410156 274 157.234375 276.839844 C 158.128906 277.609375 159.101562 278.445312 160.136719 279.292969 C 159.703125 278.9375 159.269531 278.582031 158.871094 278.242188 C 161.386719 275.820312 164.117188 273.675781 167.4375 272.160156 C 165.648438 274.015625 162.40625 276.667969 160.226562 279.371094 C 160.785156 279.835938 161.371094 280.296875 161.972656 280.777344 C 164.382812 278.523438 166.957031 276.546875 170.09375 275.109375 C 168.410156 276.839844 165.445312 279.292969 163.285156 281.824219 C 162.914062 281.53125 162.542969 281.238281 162.171875 280.960938 C 163.128906 281.71875 164.117188 282.488281 165.121094 283.277344 C 167.375 281.222656 169.816406 279.417969 172.734375 278.089844 C 171.171875 279.695312 168.519531 281.917969 166.417969 284.25 C 176.175781 291.597656 187.675781 298.761719 190.117188 296.308594 C 193.851562 292.554688 175.015625 267.730469 167.5 260.242188 C 159.996094 252.769531 153.882812 252.738281 150.148438 256.488281 Z M 179.832031 293.296875 C 179.480469 293.097656 179.125 292.878906 178.769531 292.679688 C 180.1875 291.644531 181.6875 290.71875 183.355469 289.960938 C 182.457031 290.890625 181.160156 292.046875 179.832031 293.296875 Z M 176.3125 291.167969 C 175.929688 290.933594 175.558594 290.671875 175.15625 290.425781 C 176.839844 289.097656 178.660156 287.925781 180.699219 287 C 179.601562 288.125 177.933594 289.578125 176.3125 291.167969 Z M 172.933594 288.929688 C 172.53125 288.648438 172.128906 288.371094 171.730469 288.09375 C 173.628906 286.503906 175.679688 285.097656 178.058594 284.019531 C 176.777344 285.347656 174.769531 287.074219 172.933594 288.929688 Z M 169.644531 286.628906 C 169.226562 286.335938 168.8125 286.027344 168.394531 285.714844 C 170.496094 283.878906 172.75 282.273438 175.402344 281.070312 C 173.96875 282.535156 171.636719 284.511719 169.644531 286.628906 Z M 169.644531 286.628906 " fill-opacity="1" fill-rule="nonzero"/></g><path fill="#57a52c" d="M 121.371094 108.691406 C 124.042969 105.863281 126.542969 105.308594 130.25 105.476562 C 125.246094 103.253906 120.382812 102.3125 115.398438 104.660156 C 111.769531 106.359375 107.617188 109.121094 106.304688 113.121094 C 105.53125 115.5 105.472656 118.941406 108.574219 119.203125 C 113.484375 119.589844 117.25 113.042969 121.371094 108.691406 Z M 121.371094 108.691406 " fill-opacity="1" fill-rule="nonzero"/><path fill="#57a52c" d="M 101.621094 121.695312 L 105.738281 113.328125 L 109.894531 115.375 L 105.777344 123.742188 Z M 101.621094 121.695312 " fill-opacity="1" fill-rule="nonzero"/><path fill="#57a52c" d="M 111.382812 88.558594 C 109.980469 86.550781 108.28125 84.710938 107 83.414062 C 107.863281 85.839844 107.878906 87.769531 107.523438 89.855469 C 108.125 90.394531 108.667969 90.964844 109.175781 91.535156 C 109.886719 90.515625 110.613281 89.53125 111.382812 88.558594 Z M 111.382812 88.558594 " fill-opacity="1" fill-rule="nonzero"/><path fill="#57a52c" d="M 124.96875 103.023438 C 126.574219 101.664062 128.363281 100.554688 130.542969 100.460938 C 128.796875 99.503906 126.652344 98.960938 124.460938 98.777344 C 124.042969 100.136719 123.578125 101.464844 123.101562 102.730469 C 123.703125 102.792969 124.335938 102.882812 124.96875 103.023438 Z M 124.96875 103.023438 " fill-opacity="1" fill-rule="nonzero"/><path fill="#57a52c" d="M 112.371094 106.773438 C 113.128906 102.621094 113.097656 99.210938 111.570312 96.339844 C 109.300781 92.09375 106.828125 89.082031 99.773438 85.808594 C 109.453125 94.578125 95.683594 107.316406 102.335938 115.589844 C 108.480469 123.234375 111.617188 110.945312 112.371094 106.773438 Z M 104.128906 115.390625 C 103.910156 115.175781 103.710938 114.941406 103.496094 114.664062 C 100.886719 111.421875 101.996094 107.269531 103.292969 102.46875 C 103.511719 101.664062 103.957031 100.351562 104.265625 99.039062 C 104.714844 97.125 104.4375 95.71875 104.542969 95.96875 C 104.605469 96.121094 104.652344 96.261719 104.699219 96.414062 C 105.933594 100.042969 104.515625 103.253906 104.21875 107.054688 C 103.820312 112.023438 104.5 115.777344 104.128906 115.390625 Z M 104.128906 115.390625 " fill-opacity="1" fill-rule="nonzero"/><path fill="#157a2c" d="M 182.890625 207.886719 C 184.542969 207.113281 190.441406 205.816406 189.15625 203.457031 C 187.523438 200.414062 180.40625 204.722656 178.953125 206.1875 C 176.855469 202.003906 179.726562 198.128906 178.492188 194.191406 C 176.609375 188.171875 170.402344 191.769531 170.539062 197.078125 C 164.597656 188.617188 153.003906 196.492188 161.261719 201.851562 C 165.707031 204.722656 168.117188 203.039062 172.71875 204.9375 C 176.453125 206.480469 177.441406 208.875 177.75 211.824219 C 177.902344 211.808594 178.074219 211.824219 178.242188 211.871094 C 179.632812 212.257812 181.054688 212.519531 182.101562 213.429688 C 183.691406 213.011719 185.5625 213.042969 187.507812 212.890625 C 196.785156 212.164062 188.449219 207.4375 182.890625 207.886719 Z M 182.890625 207.886719 " fill-opacity="1" fill-rule="nonzero"/><path fill="#7f3068" d="M 179.015625 211.285156 C 172.515625 209.355469 165.832031 212.566406 164.085938 218.464844 C 161.585938 226.910156 171.234375 229.734375 169.875 240.757812 C 174.507812 231.199219 184.789062 234.953125 187.613281 225.441406 C 189.359375 219.558594 185.515625 213.214844 179.015625 211.285156 Z M 165.691406 220.65625 C 165.476562 221.367188 165.398438 222.03125 165.351562 222.664062 C 165.105469 221.519531 165.121094 220.300781 165.539062 218.894531 C 167.050781 213.816406 172.902344 211.050781 178.582031 212.734375 C 179.402344 212.980469 180.15625 213.304688 180.867188 213.691406 C 174.105469 211.949219 167.375 214.988281 165.691406 220.65625 Z M 165.691406 220.65625 " fill-opacity="1" fill-rule="nonzero"/><path fill="#f64b31" d="M 94.292969 118.878906 C 93.984375 118.742188 93.660156 118.601562 93.335938 118.449219 C 93.382812 119.683594 93.277344 120.839844 93.261719 120.902344 L 93.089844 122.691406 L 92.007812 121.257812 C 91.949219 121.179688 90.710938 119.527344 89.832031 118.03125 C 88.582031 118.816406 87.132812 119.433594 87.054688 119.464844 L 86.019531 119.898438 L 86.082031 118.773438 C 86.097656 118.679688 86.203125 116.871094 86.589844 115.359375 C 84.894531 115.019531 82.933594 114.417969 82.839844 114.386719 L 81.125 113.847656 L 82.746094 113.089844 C 82.808594 113.058594 83.859375 112.566406 85.03125 112.195312 C 84.847656 112.007812 84.660156 111.808594 84.476562 111.609375 C 80.753906 110.976562 77.113281 112.117188 75.105469 114.941406 C 72.109375 119.1875 70.628906 130.257812 75.847656 133.949219 C 81.0625 137.636719 91.007812 132.542969 94 128.28125 C 95.898438 125.609375 95.882812 122.058594 94.292969 118.878906 Z M 83.90625 118.136719 C 84.105469 118.277344 84.011719 118.757812 83.6875 119.203125 C 83.378906 119.652344 82.964844 119.898438 82.761719 119.757812 C 82.5625 119.621094 82.65625 119.140625 82.980469 118.695312 C 83.304688 118.246094 83.71875 118 83.90625 118.136719 Z M 78.578125 125.6875 C 78.78125 125.828125 78.6875 126.304688 78.363281 126.753906 C 78.039062 127.203125 77.621094 127.449219 77.4375 127.308594 C 77.234375 127.171875 77.328125 126.691406 77.652344 126.242188 C 77.960938 125.8125 78.378906 125.550781 78.578125 125.6875 Z M 78.886719 120.144531 C 79.089844 120.285156 78.996094 120.761719 78.671875 121.210938 C 78.347656 121.660156 77.929688 121.90625 77.746094 121.765625 C 77.542969 121.628906 77.636719 121.148438 77.960938 120.703125 C 78.269531 120.253906 78.6875 120.007812 78.886719 120.144531 Z M 74.875 124.652344 C 74.472656 124.621094 74.164062 124.253906 73.992188 123.589844 C 73.453125 121.351562 75.011719 117.660156 76.277344 115.867188 C 77.558594 114.046875 79.320312 113.460938 80.492188 113.289062 C 78.054688 114.742188 77.066406 118.152344 76.632812 120.777344 C 76.480469 121.765625 76.664062 123.496094 75.816406 124.238281 C 75.476562 124.546875 75.152344 124.683594 74.875 124.652344 Z M 76.835938 132.464844 C 76.632812 132.328125 76.726562 131.847656 77.050781 131.402344 C 77.359375 130.953125 77.777344 130.707031 77.976562 130.84375 C 78.175781 130.984375 78.070312 131.460938 77.761719 131.910156 C 77.453125 132.359375 77.035156 132.605469 76.835938 132.464844 Z M 82.175781 124.902344 C 81.976562 124.761719 82.066406 124.285156 82.390625 123.835938 C 82.714844 123.386719 83.117188 123.140625 83.316406 123.28125 C 83.519531 123.417969 83.425781 123.898438 83.101562 124.34375 C 82.792969 124.792969 82.375 125.039062 82.175781 124.902344 Z M 81.867188 130.460938 C 81.667969 130.320312 81.757812 129.839844 82.082031 129.394531 C 82.390625 128.945312 82.808594 128.699219 83.007812 128.839844 C 83.210938 128.976562 83.101562 129.457031 82.792969 129.902344 C 82.484375 130.335938 82.066406 130.597656 81.867188 130.460938 Z M 87.207031 122.894531 C 87.007812 122.753906 87.101562 122.277344 87.425781 121.828125 C 87.75 121.378906 88.164062 121.132812 88.351562 121.273438 C 88.550781 121.410156 88.457031 121.890625 88.132812 122.339844 C 87.824219 122.785156 87.410156 123.03125 87.207031 122.894531 Z M 86.621094 128.035156 C 86.421875 127.894531 86.515625 127.417969 86.839844 126.96875 C 87.164062 126.523438 87.5625 126.273438 87.765625 126.414062 C 87.964844 126.554688 87.871094 127.03125 87.546875 127.480469 C 87.238281 127.925781 86.824219 128.175781 86.621094 128.035156 Z M 91.65625 126.027344 C 91.453125 125.890625 91.546875 125.410156 91.871094 124.960938 C 92.195312 124.515625 92.597656 124.269531 92.796875 124.40625 C 92.996094 124.546875 92.90625 125.023438 92.582031 125.472656 C 92.257812 125.917969 91.839844 126.167969 91.65625 126.027344 Z M 91.65625 126.027344 " fill-opacity="1" fill-rule="nonzero"/><path fill="#157a2c" d="M 92.550781 117.289062 C 94.449219 118.277344 97.195312 119.296875 97.195312 119.296875 C 97.195312 119.296875 95.082031 117.042969 93.414062 115.652344 C 94.925781 115.375 96.703125 114.617188 96.703125 114.617188 C 96.703125 114.617188 94.234375 113.800781 92.441406 113.460938 C 92.890625 112.441406 93.105469 110.789062 93.105469 110.789062 C 93.105469 110.789062 91.316406 111.238281 90.28125 111.824219 C 89.445312 110.234375 87.515625 107.761719 87.515625 107.761719 C 87.515625 107.761719 87.394531 109.691406 87.640625 111.207031 C 85.773438 110.109375 82.933594 108.859375 82.933594 108.859375 C 82.933594 108.859375 84.816406 111.113281 86.390625 112.566406 C 84.878906 112.859375 83.023438 113.722656 83.023438 113.722656 C 83.023438 113.722656 85.695312 114.554688 87.472656 114.820312 C 86.929688 116.316406 86.777344 118.816406 86.777344 118.816406 C 86.777344 118.816406 88.78125 117.96875 90.0625 117.042969 C 90.898438 118.617188 92.566406 120.839844 92.566406 120.839844 C 92.566406 120.839844 92.78125 118.800781 92.550781 117.289062 Z M 92.550781 117.289062 " fill-opacity="1" fill-rule="nonzero"/><path fill="#57a52c" d="M 224.261719 177.425781 C 221.902344 180.867188 221.578125 185.40625 223.320312 189.777344 C 223.738281 188.015625 223.953125 185.792969 224.527344 184.09375 C 225.453125 181.347656 226.515625 179.449219 228.664062 176.855469 C 228.664062 176.839844 228.695312 176.839844 228.695312 176.855469 C 228.710938 176.871094 228.710938 176.871094 228.710938 176.886719 C 227.121094 179.308594 226.117188 182.027344 225.390625 184.804688 C 224.957031 186.457031 224.648438 188.140625 224.355469 189.839844 C 228.339844 187.816406 231.117188 184.480469 232.011719 180.496094 C 232.597656 177.886719 232.367188 175.046875 231.410156 172.238281 C 228.386719 173.304688 225.851562 175.09375 224.261719 177.425781 Z M 224.261719 177.425781 " fill-opacity="1" fill-rule="nonzero"/><path fill="#f6c02b" d="M 190.917969 254.390625 C 191.042969 254.328125 191.164062 254.3125 191.273438 254.3125 C 195.996094 253.371094 201.863281 252.230469 207.636719 249.0625 C 212.300781 246.730469 216.25 243.722656 219.554688 241.082031 C 216.328125 242.75 211.976562 245.464844 206.125 246.144531 C 196.382812 247.890625 190.175781 244.355469 187.257812 245.496094 C 185.855469 246.175781 185.933594 249.945312 189.882812 253.511719 C 190.191406 253.835938 190.5625 254.082031 190.917969 254.390625 Z M 190.917969 254.390625 " fill-opacity="1" fill-rule="nonzero"/><path fill="#f6c02b" d="M 215.554688 257.726562 C 220.882812 252.628906 227.429688 245.296875 228.371094 236.589844 C 224.246094 238.6875 217.71875 245.882812 208.441406 250.53125 C 196.90625 256.859375 184.945312 255.425781 183.554688 259.160156 C 183 260.84375 185.621094 263.761719 191.472656 265.554688 C 195.117188 266.695312 200.101562 267.003906 205.414062 266 C 208.578125 263.777344 212.269531 261.058594 215.554688 257.726562 Z M 215.554688 257.726562 " fill-opacity="1" fill-rule="nonzero"/><path fill="#f6c02b" d="M 234.683594 230.660156 C 232.539062 230.722656 231.8125 230.351562 229.742188 230.304688 C 232.199219 242.425781 223.476562 252.445312 216.746094 258.898438 C 208.175781 267.652344 197.339844 271.730469 197.925781 275.402344 C 197.910156 278.675781 212.992188 280.453125 225.835938 267.929688 C 230.640625 263.097656 234.390625 256.414062 234.792969 249.464844 C 234.976562 246.65625 234.484375 244.0625 234.003906 241.3125 C 233.867188 240.339844 233.371094 230.691406 234.683594 230.660156 Z M 234.683594 230.660156 " fill-opacity="1" fill-rule="nonzero"/><path fill="#f6c02b" d="M 99.757812 85.808594 C 99.757812 85.808594 99.773438 85.808594 99.773438 85.824219 C 99.773438 85.792969 99.757812 85.792969 99.757812 85.808594 C 99.636719 85.730469 99.636719 85.730469 99.757812 85.808594 Z M 99.757812 85.808594 " fill-opacity="1" fill-rule="nonzero"/><g clip-path="url(#496c0dfbfd)"><path fill="#f6c02b" d="M 122.34375 102.636719 C 122.53125 102.652344 122.746094 102.683594 122.929688 102.699219 C 122.992188 102.699219 123.039062 102.714844 123.101562 102.714844 C 123.578125 101.449219 124.042969 100.121094 124.460938 98.761719 C 127.113281 90.148438 128.273438 80.464844 124.890625 78.800781 C 122.992188 77.871094 119.984375 79.585938 116.785156 82.582031 C 117.171875 82.335938 117.773438 82.351562 118.347656 82.628906 C 119.117188 83 119.519531 83.738281 119.257812 84.265625 C 118.996094 84.789062 118.160156 84.914062 117.40625 84.542969 C 116.632812 84.171875 116.230469 83.429688 116.492188 82.90625 C 116.554688 82.78125 116.664062 82.675781 116.785156 82.582031 C 114.996094 84.25 113.144531 86.332031 111.382812 88.558594 C 110.628906 89.53125 109.886719 90.515625 109.175781 91.519531 C 109.207031 91.550781 109.222656 91.582031 109.253906 91.613281 C 109.316406 91.675781 109.363281 91.753906 109.421875 91.816406 C 110.070312 91.476562 111.058594 91.492188 111.984375 91.9375 C 113.296875 92.585938 113.992188 93.835938 113.546875 94.746094 C 113.28125 95.289062 112.664062 95.566406 111.9375 95.582031 C 112.015625 95.71875 112.09375 95.875 112.171875 96.015625 C 112.511719 96.664062 112.789062 97.339844 113.003906 98.066406 C 113.652344 97.789062 114.5625 97.851562 115.414062 98.269531 C 116.726562 98.917969 117.417969 100.167969 116.972656 101.0625 C 116.523438 101.972656 115.105469 102.175781 113.808594 101.542969 C 113.699219 101.496094 113.605469 101.433594 113.515625 101.371094 C 113.53125 101.570312 113.53125 101.773438 113.546875 101.988281 C 113.558594 102.003906 113.574219 102.003906 113.589844 102.003906 C 114.53125 102.46875 115.152344 103.253906 115.257812 103.996094 C 116.109375 103.59375 116.972656 103.316406 117.851562 103.085938 C 117.449219 102.515625 117.328125 101.882812 117.574219 101.371094 C 118.023438 100.460938 119.441406 100.261719 120.753906 100.910156 C 121.574219 101.308594 122.144531 101.972656 122.34375 102.636719 Z M 124.859375 95.320312 C 124.429688 96.199219 123.195312 96.492188 122.128906 95.953125 C 121.046875 95.425781 120.523438 94.269531 120.96875 93.390625 C 121.402344 92.507812 122.636719 92.214844 123.703125 92.757812 C 124.785156 93.296875 125.308594 94.4375 124.859375 95.320312 Z M 125.941406 91.476562 C 125.648438 92.09375 124.675781 92.230469 123.796875 91.800781 C 122.914062 91.351562 122.4375 90.503906 122.746094 89.898438 C 123.039062 89.28125 124.011719 89.144531 124.890625 89.574219 C 125.773438 90.007812 126.234375 90.855469 125.941406 91.476562 Z M 126.683594 87.921875 C 126.417969 88.449219 125.585938 88.570312 124.8125 88.203125 C 124.042969 87.832031 123.640625 87.089844 123.902344 86.566406 C 124.164062 86.039062 125 85.917969 125.757812 86.289062 C 126.527344 86.65625 126.945312 87.398438 126.683594 87.921875 Z M 126.699219 85.003906 C 126.496094 85.40625 125.878906 85.5 125.308594 85.207031 C 124.738281 84.929688 124.429688 84.371094 124.628906 83.988281 C 124.828125 83.585938 125.449219 83.507812 126.019531 83.785156 C 126.589844 84.046875 126.898438 84.605469 126.699219 85.003906 Z M 123.425781 79.308594 C 123.625 78.90625 124.242188 78.816406 124.8125 79.109375 C 125.386719 79.386719 125.695312 79.941406 125.492188 80.328125 C 125.292969 80.730469 124.675781 80.820312 124.105469 80.527344 C 123.53125 80.25 123.222656 79.695312 123.425781 79.308594 Z M 121.695312 81.394531 C 122.003906 80.761719 123.007812 80.605469 123.933594 81.070312 C 124.859375 81.515625 125.355469 82.398438 125.03125 83.046875 C 124.722656 83.679688 123.71875 83.832031 122.792969 83.371094 C 121.882812 82.921875 121.386719 82.042969 121.695312 81.394531 Z M 122.589844 83.847656 C 123.734375 84.402344 124.335938 85.5 123.949219 86.289062 C 123.5625 87.074219 122.328125 87.261719 121.1875 86.703125 C 120.042969 86.132812 119.441406 85.050781 119.828125 84.25 C 120.214844 83.460938 121.449219 83.292969 122.589844 83.847656 Z M 118.792969 81.097656 C 118.996094 80.699219 119.613281 80.605469 120.183594 80.898438 C 120.753906 81.175781 121.0625 81.734375 120.863281 82.117188 C 120.660156 82.519531 120.042969 82.613281 119.472656 82.320312 C 118.902344 82.058594 118.59375 81.5 118.792969 81.097656 Z M 117.742188 87.554688 C 118.191406 86.640625 119.613281 86.441406 120.925781 87.074219 C 122.234375 87.722656 122.929688 88.972656 122.484375 89.882812 C 122.035156 90.78125 120.617188 90.996094 119.320312 90.347656 C 117.992188 89.699219 117.296875 88.449219 117.742188 87.554688 Z M 120.644531 93.605469 C 120.199219 94.515625 118.777344 94.71875 117.480469 94.070312 C 116.167969 93.421875 115.476562 92.167969 115.921875 91.273438 C 116.371094 90.363281 117.789062 90.164062 119.101562 90.796875 C 120.382812 91.460938 121.078125 92.710938 120.644531 93.605469 Z M 114.132812 85.652344 C 114.441406 85.035156 115.398438 84.898438 116.277344 85.328125 C 117.15625 85.761719 117.636719 86.613281 117.328125 87.230469 C 117.019531 87.847656 116.078125 87.984375 115.179688 87.554688 C 114.300781 87.121094 113.824219 86.273438 114.132812 85.652344 Z M 112.898438 91.414062 C 111.878906 90.917969 111.367188 89.855469 111.675781 89.003906 C 111.675781 89.003906 111.691406 88.988281 111.691406 88.988281 C 111.691406 88.988281 111.691406 88.972656 111.691406 88.972656 C 111.707031 88.941406 111.707031 88.894531 111.738281 88.851562 C 112.171875 87.96875 113.40625 87.675781 114.472656 88.21875 C 115.550781 88.742188 116.078125 89.898438 115.628906 90.78125 C 115.195312 91.660156 113.960938 91.953125 112.898438 91.414062 Z M 118.808594 97.339844 C 118.363281 98.253906 116.941406 98.453125 115.644531 97.804688 C 114.332031 97.15625 113.636719 95.90625 114.085938 95.011719 C 114.53125 94.097656 115.953125 93.898438 117.265625 94.53125 C 118.546875 95.179688 119.242188 96.445312 118.808594 97.339844 Z M 120.660156 100.289062 C 119.347656 99.640625 118.65625 98.390625 119.101562 97.496094 C 119.550781 96.585938 120.96875 96.382812 122.28125 97.03125 C 123.59375 97.679688 124.289062 98.933594 123.84375 99.84375 C 123.378906 100.722656 121.957031 100.9375 120.660156 100.289062 Z M 120.660156 100.289062 " fill-opacity="1" fill-rule="nonzero"/></g><path fill="#f64b31" d="M 224.757812 91.382812 C 227.058594 91.382812 228.925781 89.515625 228.925781 87.214844 C 228.925781 84.914062 227.058594 83.046875 224.757812 83.046875 C 222.457031 83.046875 220.589844 84.914062 220.589844 87.214844 C 220.589844 89.515625 222.457031 91.382812 224.757812 91.382812 Z M 224.757812 91.382812 " fill-opacity="1" fill-rule="nonzero"/><path fill="#f68820" d="M 225.777344 102.636719 C 226.902344 102.636719 227.828125 101.726562 227.828125 100.585938 C 227.828125 99.457031 226.902344 98.53125 225.777344 98.53125 C 224.648438 98.53125 223.722656 99.441406 223.722656 100.585938 C 223.722656 101.726562 224.632812 102.636719 225.777344 102.636719 Z M 225.777344 102.636719 " fill-opacity="1" fill-rule="nonzero"/><path fill="#f64b31" d="M 297.328125 112.332031 C 295.058594 112.332031 293.238281 114.171875 293.238281 116.425781 C 293.238281 118.695312 295.074219 120.515625 297.328125 120.515625 C 299.582031 120.515625 301.421875 118.679688 301.421875 116.425781 C 301.4375 114.171875 299.597656 112.332031 297.328125 112.332031 Z M 297.328125 112.332031 " fill-opacity="1" fill-rule="nonzero"/><path fill="#f68820" d="M 303.457031 125.472656 C 302.332031 125.472656 301.421875 126.382812 301.421875 127.511719 C 301.421875 128.636719 302.332031 129.546875 303.457031 129.546875 C 304.585938 129.546875 305.496094 128.636719 305.496094 127.511719 C 305.496094 126.382812 304.585938 125.472656 303.457031 125.472656 Z M 303.457031 125.472656 " fill-opacity="1" fill-rule="nonzero"/><path fill="#f6c02b" d="M 255.152344 174.214844 C 253.734375 174.214844 252.574219 175.371094 252.574219 176.792969 C 252.574219 178.210938 253.734375 179.371094 255.152344 179.371094 C 256.574219 179.371094 257.730469 178.210938 257.730469 176.792969 C 257.730469 175.371094 256.589844 174.214844 255.152344 174.214844 Z M 255.152344 174.214844 " fill-opacity="1" fill-rule="nonzero"/><path fill="#f68820" d="M 247.050781 240.480469 C 244.949219 240.480469 243.234375 242.179688 243.234375 244.292969 C 243.234375 246.410156 244.933594 248.105469 247.050781 248.105469 C 249.148438 248.105469 250.863281 246.410156 250.863281 244.292969 C 250.863281 242.179688 249.148438 240.480469 247.050781 240.480469 Z M 247.050781 240.480469 " fill-opacity="1" fill-rule="nonzero"/><path fill="#f6c02b" d="M 172.75 249.664062 C 172.746094 249.921875 172.699219 250.167969 172.601562 250.40625 C 172.503906 250.640625 172.363281 250.847656 172.183594 251.03125 C 172 251.210938 171.792969 251.351562 171.558594 251.449219 C 171.320312 251.546875 171.074219 251.597656 170.816406 251.597656 C 170.5625 251.597656 170.316406 251.546875 170.078125 251.449219 C 169.84375 251.351562 169.636719 251.210938 169.453125 251.03125 C 169.273438 250.847656 169.132812 250.640625 169.035156 250.40625 C 168.9375 250.167969 168.886719 249.921875 168.886719 249.664062 C 168.886719 249.410156 168.9375 249.164062 169.035156 248.925781 C 169.132812 248.691406 169.273438 248.480469 169.453125 248.300781 C 169.636719 248.121094 169.84375 247.980469 170.078125 247.882812 C 170.316406 247.785156 170.5625 247.734375 170.816406 247.734375 C 171.074219 247.734375 171.320312 247.785156 171.558594 247.882812 C 171.792969 247.980469 172 248.121094 172.183594 248.300781 C 172.363281 248.480469 172.503906 248.691406 172.601562 248.925781 C 172.699219 249.164062 172.746094 249.410156 172.75 249.664062 Z M 172.75 249.664062 " fill-opacity="1" fill-rule="nonzero"/><path fill="#57a52c" d="M 125.152344 233.175781 C 123.054688 233.175781 121.355469 234.875 121.355469 236.976562 C 121.355469 239.074219 123.054688 240.773438 125.152344 240.773438 C 127.253906 240.773438 128.953125 239.074219 128.953125 236.976562 C 128.953125 234.875 127.253906 233.175781 125.152344 233.175781 Z M 125.152344 233.175781 " fill-opacity="1" fill-rule="nonzero"/><path fill="#f68820" d="M 154.039062 186.457031 C 154.039062 186.878906 153.957031 187.28125 153.796875 187.667969 C 153.636719 188.054688 153.40625 188.398438 153.109375 188.695312 C 152.8125 188.992188 152.472656 189.222656 152.085938 189.382812 C 151.695312 189.542969 151.292969 189.621094 150.871094 189.621094 C 150.453125 189.621094 150.050781 189.542969 149.660156 189.382812 C 149.273438 189.222656 148.933594 188.992188 148.636719 188.695312 C 148.339844 188.398438 148.109375 188.054688 147.949219 187.667969 C 147.789062 187.28125 147.707031 186.878906 147.707031 186.457031 C 147.707031 186.039062 147.789062 185.632812 147.949219 185.246094 C 148.109375 184.859375 148.339844 184.515625 148.636719 184.21875 C 148.933594 183.921875 149.273438 183.695312 149.660156 183.535156 C 150.050781 183.371094 150.453125 183.292969 150.871094 183.292969 C 151.292969 183.292969 151.695312 183.371094 152.085938 183.535156 C 152.472656 183.695312 152.8125 183.921875 153.109375 184.21875 C 153.40625 184.515625 153.636719 184.859375 153.796875 185.246094 C 153.957031 185.632812 154.039062 186.039062 154.039062 186.457031 Z M 154.039062 186.457031 " fill-opacity="1" fill-rule="nonzero"/><path fill="#f6c02b" d="M 122.914062 170.261719 C 122.914062 170.957031 123.472656 171.511719 124.164062 171.511719 C 124.859375 171.511719 125.417969 170.957031 125.417969 170.261719 C 125.417969 169.566406 124.859375 169.011719 124.164062 169.011719 C 123.472656 169.011719 122.914062 169.566406 122.914062 170.261719 Z M 122.914062 170.261719 " fill-opacity="1" fill-rule="nonzero"/><path fill="#f68820" d="M 115.984375 131.832031 C 115.984375 132.238281 115.90625 132.625 115.753906 132.996094 C 115.597656 133.371094 115.378906 133.699219 115.09375 133.984375 C 114.808594 134.269531 114.480469 134.488281 114.105469 134.644531 C 113.734375 134.796875 113.347656 134.875 112.941406 134.875 C 112.539062 134.875 112.152344 134.796875 111.777344 134.644531 C 111.40625 134.488281 111.078125 134.269531 110.792969 133.984375 C 110.507812 133.699219 110.289062 133.371094 110.132812 132.996094 C 109.980469 132.625 109.902344 132.238281 109.902344 131.832031 C 109.902344 131.429688 109.980469 131.042969 110.132812 130.667969 C 110.289062 130.296875 110.507812 129.96875 110.792969 129.683594 C 111.078125 129.398438 111.40625 129.175781 111.777344 129.023438 C 112.152344 128.867188 112.539062 128.792969 112.941406 128.792969 C 113.347656 128.792969 113.734375 128.867188 114.105469 129.023438 C 114.480469 129.175781 114.808594 129.398438 115.09375 129.683594 C 115.378906 129.96875 115.597656 130.296875 115.753906 130.667969 C 115.90625 131.042969 115.984375 131.429688 115.984375 131.832031 Z M 115.984375 131.832031 " fill-opacity="1" fill-rule="nonzero"/><path fill="#f68820" d="M 194.207031 144.167969 C 194.207031 144.335938 194.175781 144.5 194.109375 144.652344 C 194.046875 144.808594 193.953125 144.945312 193.835938 145.0625 C 193.714844 145.183594 193.578125 145.273438 193.425781 145.339844 C 193.269531 145.402344 193.109375 145.433594 192.941406 145.433594 C 192.773438 145.433594 192.609375 145.402344 192.457031 145.339844 C 192.300781 145.273438 192.164062 145.183594 192.046875 145.0625 C 191.925781 144.945312 191.835938 144.808594 191.769531 144.652344 C 191.707031 144.5 191.675781 144.335938 191.675781 144.167969 C 191.675781 144 191.707031 143.839844 191.769531 143.683594 C 191.835938 143.53125 191.925781 143.394531 192.046875 143.273438 C 192.164062 143.15625 192.300781 143.0625 192.457031 143 C 192.609375 142.933594 192.773438 142.902344 192.941406 142.902344 C 193.109375 142.902344 193.269531 142.933594 193.425781 143 C 193.578125 143.0625 193.714844 143.15625 193.835938 143.273438 C 193.953125 143.394531 194.046875 143.53125 194.109375 143.683594 C 194.175781 143.839844 194.207031 144 194.207031 144.167969 Z M 194.207031 144.167969 " fill-opacity="1" fill-rule="nonzero"/><path fill="#f6c02b" d="M 218.8125 134.6875 C 218.8125 135.070312 218.742188 135.4375 218.59375 135.789062 C 218.449219 136.140625 218.242188 136.449219 217.972656 136.71875 C 217.703125 136.988281 217.394531 137.195312 217.042969 137.34375 C 216.6875 137.488281 216.324219 137.5625 215.941406 137.5625 C 215.5625 137.5625 215.195312 137.488281 214.84375 137.34375 C 214.492188 137.195312 214.179688 136.988281 213.910156 136.71875 C 213.644531 136.449219 213.433594 136.140625 213.289062 135.789062 C 213.144531 135.4375 213.070312 135.070312 213.070312 134.6875 C 213.070312 134.308594 213.144531 133.941406 213.289062 133.589844 C 213.433594 133.238281 213.644531 132.929688 213.910156 132.660156 C 214.179688 132.390625 214.492188 132.183594 214.84375 132.035156 C 215.195312 131.890625 215.5625 131.816406 215.941406 131.816406 C 216.324219 131.816406 216.6875 131.890625 217.042969 132.035156 C 217.394531 132.183594 217.703125 132.390625 217.972656 132.660156 C 218.242188 132.929688 218.449219 133.238281 218.59375 133.589844 C 218.742188 133.941406 218.8125 134.308594 218.8125 134.6875 Z M 218.8125 134.6875 " fill-opacity="1" fill-rule="nonzero"/></svg>