<svg className="appLogo" 
xmlns="http://www.w3.org/2000/svg" xmlns:xlink="http://www.w3.org/1999/xlink" width="300" zoomAndPan="magnify" viewBox="0 0 150 74.999997" height="150" preserveAspectRatio="xMidYMid meet" version="1.0"><defs><g/></defs><g fill="#f4c948" fill-opacity="1"><g transform="translate(3.489323, 23.110752)"><g><path d="M 5.921875 -3.5625 L 13.015625 -3.5625 L 13.015625 0 L 1.671875 0 L 1.671875 -16.71875 L 5.921875 -16.71875 Z M 5.921875 -3.5625 "/></g></g></g><g fill="#f4c948" fill-opacity="1"><g transform="translate(16.863665, 23.110752)"><g><path d="M 9.609375 -16.859375 C 12.203125 -16.859375 14.359375 -16.050781 16.078125 -14.4375 C 17.796875 -12.820312 18.65625 -10.804688 18.65625 -8.390625 C 18.65625 -5.953125 17.789062 -3.910156 16.0625 -2.265625 C 14.332031 -0.628906 12.175781 0.1875 9.59375 0.1875 C 7.019531 0.1875 4.875 -0.625 3.15625 -2.25 C 1.4375 -3.882812 0.578125 -5.929688 0.578125 -8.390625 C 0.578125 -10.828125 1.4375 -12.847656 3.15625 -14.453125 C 4.875 -16.054688 7.023438 -16.859375 9.609375 -16.859375 Z M 9.65625 -13.3125 C 8.34375 -13.3125 7.222656 -12.835938 6.296875 -11.890625 C 5.378906 -10.941406 4.921875 -9.765625 4.921875 -8.359375 C 4.921875 -6.960938 5.382812 -5.78125 6.3125 -4.8125 C 7.25 -3.851562 8.363281 -3.375 9.65625 -3.375 C 10.945312 -3.375 12.039062 -3.851562 12.9375 -4.8125 C 13.832031 -5.78125 14.28125 -6.960938 14.28125 -8.359375 C 14.28125 -9.765625 13.832031 -10.941406 12.9375 -11.890625 C 12.039062 -12.835938 10.945312 -13.3125 9.65625 -13.3125 Z M 9.65625 -13.3125 "/></g></g></g><g fill="#f4c948" fill-opacity="1"><g transform="translate(36.08928, 23.110752)"><g><path d="M 10.875 0 L 6.46875 0 L -0.03125 -16.71875 L 4.515625 -16.71875 L 8.796875 -4.421875 L 13.0625 -16.71875 L 17.4375 -16.71875 Z M 10.875 0 "/></g></g></g><g fill="#f4c948" fill-opacity="1"><g transform="translate(53.499805, 23.110752)"><g><path d="M 14.765625 -13.375 L 5.921875 -13.375 L 5.921875 -10.0625 L 13.90625 -10.0625 L 13.90625 -6.71875 L 5.921875 -6.71875 L 5.921875 -3.34375 L 15.03125 -3.34375 L 15.03125 0 L 1.671875 0 L 1.671875 -16.71875 L 14.765625 -16.71875 Z M 14.765625 -13.375 "/></g></g></g><g fill="#f4c948" fill-opacity="1"><g transform="translate(69.596777, 23.110752)"><g/></g></g><g fill="#f4c948" fill-opacity="1"><g transform="translate(75.137571, 23.110752)"><g><path d="M 14.078125 -13.375 L 5.921875 -13.375 L 5.921875 -9.515625 L 13.421875 -9.515625 L 13.421875 -6.15625 L 5.921875 -6.15625 L 5.921875 0 L 1.671875 0 L 1.671875 -16.71875 L 14.078125 -16.71875 Z M 14.078125 -13.375 "/></g></g></g><g fill="#f4c948" fill-opacity="1"><g transform="translate(89.562744, 23.110752)"><g><path d="M 9.609375 -16.859375 C 12.203125 -16.859375 14.359375 -16.050781 16.078125 -14.4375 C 17.796875 -12.820312 18.65625 -10.804688 18.65625 -8.390625 C 18.65625 -5.953125 17.789062 -3.910156 16.0625 -2.265625 C 14.332031 -0.628906 12.175781 0.1875 9.59375 0.1875 C 7.019531 0.1875 4.875 -0.625 3.15625 -2.25 C 1.4375 -3.882812 0.578125 -5.929688 0.578125 -8.390625 C 0.578125 -10.828125 1.4375 -12.847656 3.15625 -14.453125 C 4.875 -16.054688 7.023438 -16.859375 9.609375 -16.859375 Z M 9.65625 -13.3125 C 8.34375 -13.3125 7.222656 -12.835938 6.296875 -11.890625 C 5.378906 -10.941406 4.921875 -9.765625 4.921875 -8.359375 C 4.921875 -6.960938 5.382812 -5.78125 6.3125 -4.8125 C 7.25 -3.851562 8.363281 -3.375 9.65625 -3.375 C 10.945312 -3.375 12.039062 -3.851562 12.9375 -4.8125 C 13.832031 -5.78125 14.28125 -6.960938 14.28125 -8.359375 C 14.28125 -9.765625 13.832031 -10.941406 12.9375 -11.890625 C 12.039062 -12.835938 10.945312 -13.3125 9.65625 -13.3125 Z M 9.65625 -13.3125 "/></g></g></g><g fill="#f4c948" fill-opacity="1"><g transform="translate(108.788359, 23.110752)"><g><path d="M 9.609375 -16.859375 C 12.203125 -16.859375 14.359375 -16.050781 16.078125 -14.4375 C 17.796875 -12.820312 18.65625 -10.804688 18.65625 -8.390625 C 18.65625 -5.953125 17.789062 -3.910156 16.0625 -2.265625 C 14.332031 -0.628906 12.175781 0.1875 9.59375 0.1875 C 7.019531 0.1875 4.875 -0.625 3.15625 -2.25 C 1.4375 -3.882812 0.578125 -5.929688 0.578125 -8.390625 C 0.578125 -10.828125 1.4375 -12.847656 3.15625 -14.453125 C 4.875 -16.054688 7.023438 -16.859375 9.609375 -16.859375 Z M 9.65625 -13.3125 C 8.34375 -13.3125 7.222656 -12.835938 6.296875 -11.890625 C 5.378906 -10.941406 4.921875 -9.765625 4.921875 -8.359375 C 4.921875 -6.960938 5.382812 -5.78125 6.3125 -4.8125 C 7.25 -3.851562 8.363281 -3.375 9.65625 -3.375 C 10.945312 -3.375 12.039062 -3.851562 12.9375 -4.8125 C 13.832031 -5.78125 14.28125 -6.960938 14.28125 -8.359375 C 14.28125 -9.765625 13.832031 -10.941406 12.9375 -11.890625 C 12.039062 -12.835938 10.945312 -13.3125 9.65625 -13.3125 Z M 9.65625 -13.3125 "/></g></g></g><g fill="#f4c948" fill-opacity="1"><g transform="translate(128.013973, 23.110752)"><g><path d="M 1.671875 -16.71875 L 8.859375 -16.71875 C 11.492188 -16.71875 13.632812 -15.945312 15.28125 -14.40625 C 16.925781 -12.863281 17.75 -10.847656 17.75 -8.359375 C 17.75 -5.890625 16.910156 -3.878906 15.234375 -2.328125 C 13.566406 -0.773438 11.390625 0 8.703125 0 L 1.671875 0 Z M 5.921875 -13.328125 L 5.921875 -3.390625 L 8.953125 -3.390625 C 10.265625 -3.390625 11.335938 -3.847656 12.171875 -4.765625 C 13.003906 -5.679688 13.421875 -6.867188 13.421875 -8.328125 C 13.421875 -9.796875 12.984375 -10.992188 12.109375 -11.921875 C 11.234375 -12.859375 10.117188 -13.328125 8.765625 -13.328125 Z M 5.921875 -13.328125 "/></g></g></g><g fill="#f4c948" fill-opacity="1"><g transform="translate(146.329155, 23.110752)"><g/></g></g></svg>